solid OpenSCAD_Model
  facet normal -1 0 0
    outer loop
      vertex -27.15 -180.34 -4
      vertex -27.15 -170.34 -1.39504
      vertex -27.15 -170.34 -4
    endloop
  endfacet
  facet normal -1 -0 0
    outer loop
      vertex -27.15 -170.34 -1.39504
      vertex -27.15 -180.34 -4
      vertex -27.15 -180.34 0.36823
    endloop
  endfacet
  facet normal 0 0 -1
    outer loop
      vertex -27.15 -180.34 -4
      vertex 17.15 -170.34 -4
      vertex 27.15 -180.34 -4
    endloop
  endfacet
  facet normal -0 0 -1
    outer loop
      vertex 17.15 -170.34 -4
      vertex -27.15 -180.34 -4
      vertex -27.15 -170.34 -4
    endloop
  endfacet
  facet normal 0 1 -0
    outer loop
      vertex 17.15 -170.34 -4
      vertex -27.15 -170.34 -1.39504
      vertex 17.15 -170.34 -1.39504
    endloop
  endfacet
  facet normal 0 1 0
    outer loop
      vertex -27.15 -170.34 -1.39504
      vertex 17.15 -170.34 -4
      vertex -27.15 -170.34 -4
    endloop
  endfacet
  facet normal 0 -1 0
    outer loop
      vertex -27.15 -180.34 -4
      vertex 27.15 -180.34 0.36823
      vertex -27.15 -180.34 0.36823
    endloop
  endfacet
  facet normal 0 -1 -0
    outer loop
      vertex 27.15 -180.34 0.36823
      vertex -27.15 -180.34 -4
      vertex 27.15 -180.34 -4
    endloop
  endfacet
  facet normal 0 0.173648 0.984808
    outer loop
      vertex -27.15 -180.34 0.36823
      vertex 17.15 -170.34 -1.39504
      vertex -27.15 -170.34 -1.39504
    endloop
  endfacet
  facet normal 0 0.173648 0.984808
    outer loop
      vertex 17.15 -170.34 -1.39504
      vertex -27.15 -180.34 0.36823
      vertex 27.15 -180.34 0.36823
    endloop
  endfacet
  facet normal 0.707107 0.707107 -0
    outer loop
      vertex 27.15 -180.34 -4
      vertex 17.15 -170.34 -1.39504
      vertex 27.15 -180.34 0.36823
    endloop
  endfacet
  facet normal 0.707107 0.707107 0
    outer loop
      vertex 17.15 -170.34 -1.39504
      vertex 27.15 -180.34 -4
      vertex 17.15 -170.34 -4
    endloop
  endfacet
  facet normal 0 1 -0
    outer loop
      vertex 27.15 -100.64 -4
      vertex 17.15 -100.64 -1.39504
      vertex 27.15 -100.64 0.36823
    endloop
  endfacet
  facet normal 0 1 0
    outer loop
      vertex 17.15 -100.64 -1.39504
      vertex 27.15 -100.64 -4
      vertex 17.15 -100.64 -4
    endloop
  endfacet
  facet normal 1 -0 0
    outer loop
      vertex 27.15 -180.34 0.36823
      vertex 27.15 -100.64 -4
      vertex 27.15 -100.64 0.36823
    endloop
  endfacet
  facet normal 1 0 0
    outer loop
      vertex 27.15 -100.64 -4
      vertex 27.15 -180.34 0.36823
      vertex 27.15 -180.34 -4
    endloop
  endfacet
  facet normal 0 0 -1
    outer loop
      vertex 17.15 -170.34 -4
      vertex 27.15 -100.64 -4
      vertex 27.15 -180.34 -4
    endloop
  endfacet
  facet normal -0 0 -1
    outer loop
      vertex 27.15 -100.64 -4
      vertex 17.15 -170.34 -4
      vertex 17.15 -100.64 -4
    endloop
  endfacet
  facet normal -1 0 0
    outer loop
      vertex 17.15 -170.34 -4
      vertex 17.15 -100.64 -1.39504
      vertex 17.15 -100.64 -4
    endloop
  endfacet
  facet normal -1 -0 0
    outer loop
      vertex 17.15 -100.64 -1.39504
      vertex 17.15 -170.34 -4
      vertex 17.15 -170.34 -1.39504
    endloop
  endfacet
  facet normal -0.173648 0 0.984808
    outer loop
      vertex 17.15 -170.34 -1.39504
      vertex 27.15 -100.64 0.36823
      vertex 17.15 -100.64 -1.39504
    endloop
  endfacet
  facet normal -0.173648 -3.6825e-10 0.984808
    outer loop
      vertex 27.15 -100.64 0.36823
      vertex 17.15 -170.34 -1.39504
      vertex 27.15 -180.34 0.36823
    endloop
  endfacet
  facet normal -0.707107 -0.707107 0
    outer loop
      vertex 27.15 -180.34 -4
      vertex 17.15 -170.34 -1.39504
      vertex 17.15 -170.34 -4
    endloop
  endfacet
  facet normal -0.707107 -0.707107 0
    outer loop
      vertex 17.15 -170.34 -1.39504
      vertex 27.15 -180.34 -4
      vertex 27.15 -180.34 0.36823
    endloop
  endfacet
endsolid OpenSCAD_Model
